<svg width="16" height="16" viewBox="0 0 16 16" fill="none" xmlns="http://www.w3.org/2000/svg">
<g clip-path="url(#clip0_17141_5272)">
<path d="M15.4995 14.667C15.4097 14.6669 15.3216 14.6427 15.2444 14.5968C15.1673 14.5509 15.1038 14.4851 15.0609 14.4063L15.0469 14.381C14.3112 13.0537 13.2337 11.9475 11.9263 11.1772C10.6188 10.4069 9.12904 10.0005 7.61154 10.0003H6.6662V12.8336C6.66613 12.9318 6.63715 13.0278 6.58287 13.1097C6.52859 13.1915 6.45142 13.2555 6.36097 13.2938C6.27053 13.332 6.17083 13.3428 6.07431 13.3248C5.97779 13.3067 5.88871 13.2606 5.8182 13.1923L0.151535 7.6923C0.103305 7.64584 0.0649395 7.59013 0.0387347 7.5285C0.0125298 7.46688 -0.000976562 7.4006 -0.000976562 7.33363C-0.000976562 7.26666 0.0125298 7.20038 0.0387347 7.13876C0.0649395 7.07713 0.103305 7.02142 0.151535 6.97496L5.8182 1.47496C5.88871 1.40662 5.97779 1.36055 6.07431 1.3425C6.17083 1.32445 6.27053 1.33523 6.36097 1.37348C6.45142 1.41173 6.52859 1.47577 6.58287 1.5576C6.63715 1.63943 6.66613 1.73543 6.6662 1.83363V4.6683C11.8282 4.75763 15.9995 8.9843 15.9995 14.167C15.9995 14.2996 15.9469 14.4268 15.8531 14.5205C15.7593 14.6143 15.6321 14.667 15.4995 14.667ZM6.1662 9.0003H7.61154C10.3955 9.0003 13.0042 10.2196 14.7875 12.2743C13.9249 8.49496 10.5362 5.66696 6.49954 5.66696H6.1662C6.03359 5.66696 5.90642 5.61429 5.81265 5.52052C5.71888 5.42675 5.6662 5.29957 5.6662 5.16696V3.01563L1.21754 7.33363L5.6662 11.6516V9.5003C5.6662 9.36769 5.71888 9.24051 5.81265 9.14674C5.90642 9.05298 6.03359 9.0003 6.1662 9.0003Z" fill="#64748B"/>
</g>
<defs>
<clipPath id="clip0_17141_5272">
<rect width="16" height="16" fill="white"/>
</clipPath>
</defs>
</svg>
