<svg width="14" height="14" viewBox="0 0 14 14" fill="none" xmlns="http://www.w3.org/2000/svg">
<path d="M4.66699 1.16699V2.91699" stroke="#22C55E" stroke-miterlimit="10" stroke-linecap="round" stroke-linejoin="round"/>
<path d="M9.33301 1.16699V2.91699" stroke="#22C55E" stroke-miterlimit="10" stroke-linecap="round" stroke-linejoin="round"/>
<path d="M12.25 4.95866V7.95116C11.7308 7.537 11.0717 7.29199 10.3542 7.29199C9.63667 7.29199 8.96583 7.54281 8.44083 7.96864C7.735 8.52281 7.29167 9.39199 7.29167 10.3545C7.29167 10.9262 7.45501 11.4745 7.73501 11.9295C7.95084 12.2853 8.23083 12.5945 8.56333 12.8337H4.66667C2.625 12.8337 1.75 11.667 1.75 9.91699V4.95866C1.75 3.20866 2.625 2.04199 4.66667 2.04199H9.33333C11.375 2.04199 12.25 3.20866 12.25 4.95866Z" stroke="#22C55E" stroke-miterlimit="10" stroke-linecap="round" stroke-linejoin="round"/>
<path d="M4.08301 6.41699H7.58301" stroke="#22C55E" stroke-miterlimit="10" stroke-linecap="round" stroke-linejoin="round"/>
<path d="M4.08301 9.33301H5.61134" stroke="#22C55E" stroke-miterlimit="10" stroke-linecap="round" stroke-linejoin="round"/>
<path d="M13.417 10.3545C13.417 10.9262 13.2537 11.4745 12.9737 11.9295C12.8103 12.2095 12.6062 12.4545 12.367 12.6528C11.8303 13.1312 11.1303 13.417 10.3545 13.417C9.68366 13.417 9.06532 13.2012 8.56365 12.8337C8.23115 12.5945 7.95116 12.2853 7.73533 11.9295C7.45533 11.4745 7.29199 10.9262 7.29199 10.3545C7.29199 9.39199 7.73533 8.52281 8.44116 7.96864C8.96616 7.54281 9.63699 7.29199 10.3545 7.29199C11.072 7.29199 11.7312 7.537 12.2503 7.95116C12.962 8.51116 13.417 9.38033 13.417 10.3545Z" stroke="#22C55E" stroke-miterlimit="10" stroke-linecap="round" stroke-linejoin="round"/>
<path d="M10.3538 11.8122C10.3538 11.0072 11.0072 10.3538 11.8122 10.3538C11.0072 10.3538 10.3538 9.70051 10.3538 8.89551C10.3538 9.70051 9.70051 10.3538 8.89551 10.3538C9.70051 10.3538 10.3538 11.0072 10.3538 11.8122Z" stroke="#22C55E" stroke-linecap="round" stroke-linejoin="round"/>
</svg>
