<svg width="12" height="12" viewBox="0 0 12 12" fill="none" xmlns="http://www.w3.org/2000/svg">
<path d="M3.28415 1.2075C3.16094 0.909836 3.30233 0.568641 3.60002 0.445402C3.89769 0.322191 4.23888 0.463586 4.36212 0.761277C4.485 1.05815 4.3447 1.39847 4.04832 1.5225C3.97569 1.55015 3.89854 1.564 3.82082 1.56332C3.70632 1.56323 3.59438 1.52944 3.49895 1.46616C3.40351 1.40289 3.32881 1.31293 3.28415 1.2075ZM2.1175 2.70665C2.27136 2.70446 2.41813 2.64156 2.52582 2.53165C2.75431 2.30453 2.7554 1.93517 2.52829 1.70669C2.30117 1.4782 1.93181 1.47711 1.70332 1.70423C1.47484 1.93134 1.47375 2.3007 1.70086 2.52919L1.70332 2.53165C1.75803 2.58747 1.82341 2.63173 1.89556 2.66179C1.96771 2.69185 2.04516 2.70711 2.12332 2.70665H2.1175ZM0.758324 4.36332C0.828859 4.39121 0.904157 4.40508 0.98 4.40415C1.09549 4.4052 1.2087 4.37195 1.30528 4.30861C1.40185 4.24526 1.47745 4.15468 1.5225 4.04832C1.64571 3.75066 1.50432 3.40946 1.20662 3.28623C0.908961 3.16302 0.567766 3.30441 0.444527 3.6021C0.321645 3.89895 0.461945 4.23929 0.758324 4.36332ZM0 5.83332C0 9.05499 2.61168 11.6666 5.83332 11.6666C9.05497 11.6666 11.6666 9.05499 11.6666 5.83332C11.6666 2.61166 9.05499 0 5.83332 0C5.51389 0.00801172 5.25782 0.274477 5.26151 0.590187C5.26515 0.900813 5.51909 1.15883 5.83332 1.16668C8.41066 1.16668 10.5 3.25601 10.5 5.83335C10.5 8.41069 8.41066 10.5 5.83332 10.5C3.25598 10.5 1.16665 8.41066 1.16665 5.83332C1.16312 5.51573 0.900867 5.2564 0.583297 5.2564C0.265727 5.25643 0.0035 5.51575 0 5.83332ZM5.38415 6.20665L6.88915 7.99747C6.94391 8.0615 7.0119 8.11291 7.08843 8.14815C7.16496 8.1834 7.24822 8.20165 7.33247 8.20165C7.46877 8.20193 7.60086 8.15445 7.7058 8.06747C7.9538 7.86185 7.98818 7.4941 7.78255 7.24609L7.78162 7.24497L6.41662 5.6233V2.91662C6.41662 2.59446 6.15546 2.3333 5.8333 2.3333C5.51113 2.3333 5.24997 2.59446 5.24997 2.91662V5.83332C5.24872 5.90047 5.25959 5.9673 5.28207 6.03058C5.30503 6.09503 5.33963 6.15471 5.38415 6.20665Z" fill="#F59E0B"/>
</svg>
