<svg width="16" height="18" viewBox="0 0 16 18" fill="none" xmlns="http://www.w3.org/2000/svg">
<path d="M8.66667 15.3333C8.3 15.3333 8 15.0333 8 14.6667V10.6667C8 10.3 7.7 10 7.33333 10C6.96667 10 6.66667 9.7 6.66667 9.33333C6.66667 8.96667 6.96667 8.66667 7.33333 8.66667C8.43333 8.66667 9.33333 9.56667 9.33333 10.6667V14.6667C9.33333 15.0333 9.03333 15.3333 8.66667 15.3333ZM8 5.33333C7.44667 5.33333 7 5.78 7 6.33333C7 6.88667 7.44667 7.33333 8 7.33333C8.55333 7.33333 9 6.88667 9 6.33333C9 5.78 8.55333 5.33333 8 5.33333ZM16 14.6667V5.33333C16 3.49333 14.5067 2 12.6667 2H3.33333C1.49333 2 0 3.49333 0 5.33333V14.6667C0 16.5067 1.49333 18 3.33333 18H12.6667C14.5067 18 16 16.5067 16 14.6667ZM12.6667 3.33333C13.7667 3.33333 14.6667 4.23333 14.6667 5.33333V14.6667C14.6667 15.7667 13.7667 16.6667 12.6667 16.6667H3.33333C2.23333 16.6667 1.33333 15.7667 1.33333 14.6667V5.33333C1.33333 4.23333 2.23333 3.33333 3.33333 3.33333H12.6667Z" fill="#E11D48"/>
</svg>
