<svg width="20" height="20" viewBox="0 0 20 20" fill="none" xmlns="http://www.w3.org/2000/svg">
<path d="M16.9375 4.475L15.525 3.0625C14.775 2.3125 13.5562 2.3125 12.8062 3.0625L10.4375 5.4375L3.44375 12.425C2.83125 13.0375 2.5 13.8438 2.5 14.7063V16.875C2.5 17.2188 2.78125 17.5 3.125 17.5H5.29375C6.15625 17.5 6.9625 17.1625 7.575 16.5562L14.5687 9.56875L16.9375 7.19375C17.3 6.83125 17.5 6.35 17.5 5.8375C17.5 5.325 17.3 4.84375 16.9375 4.48125V4.475ZM6.6875 15.6687C6.3125 16.0437 5.81875 16.25 5.29375 16.25H3.75V14.7063C3.75 14.1813 3.95625 13.6812 4.33125 13.3125L10.8813 6.76875L13.2438 9.13125L6.69375 15.6812L6.6875 15.6687ZM16.0563 6.30625L14.1313 8.2375L11.7688 5.875L13.6938 3.94375C13.9563 3.68125 14.3813 3.68125 14.6438 3.94375L16.0563 5.35625C16.1813 5.48125 16.25 5.65 16.25 5.83125C16.25 6.0125 16.1813 6.175 16.0563 6.30625ZM16.25 16.25H10C9.65625 16.25 9.375 16.5312 9.375 16.875C9.375 17.2188 9.65625 17.5 10 17.5H16.25C16.5938 17.5 16.875 17.2188 16.875 16.875C16.875 16.5312 16.5938 16.25 16.25 16.25Z" fill="white"/>
</svg>
