<svg width="32" height="32" viewBox="0 0 32 32" fill="none" xmlns="http://www.w3.org/2000/svg">
<g clip-path="url(#clip0_17428_2357)">
<path fill-rule="evenodd" clip-rule="evenodd" d="M15.9489 0.484926C18.8334 0.517842 21.4394 1.2268 23.7667 2.6118C26.0663 3.96912 27.9791 5.89367 29.3224 8.20143C30.6989 10.5427 31.4036 13.1644 31.4364 16.0666C31.3547 20.0374 30.1022 23.4289 27.6791 26.241C25.256 29.0532 22.1526 30.7929 18.9399 31.4598V20.3269H21.9772L22.6641 15.9519H18.0649V13.0864C18.0394 12.4924 18.2273 11.9088 18.5946 11.4412C18.9623 10.9724 19.6101 10.7259 20.5377 10.7019H23.3149V6.86955C23.2751 6.85672 22.8969 6.80601 22.1806 6.71743C21.3681 6.62236 20.551 6.57157 19.7331 6.5653C17.8817 6.57384 16.4175 7.09609 15.3405 8.13205C14.2634 9.16768 13.7132 10.666 13.6899 12.6271V15.9519H10.1899V20.3269H13.6899V31.4599C9.74524 30.793 6.6418 29.0532 4.21868 26.2411C1.79555 23.429 0.543176 20.0374 0.461426 16.0666C0.494134 13.1643 1.1988 10.5426 2.57543 8.20143C3.91871 5.89365 5.83158 3.96908 8.13111 2.61174C10.4584 1.22703 13.0643 0.518134 15.9489 0.484926Z" fill="#2563EB"/>
</g>
<defs>
<clipPath id="clip0_17428_2357">
<rect width="32" height="32" fill="white"/>
</clipPath>
</defs>
</svg>
