<svg width="175" height="48" viewBox="0 0 175 48" fill="none" xmlns="http://www.w3.org/2000/svg">
<path d="M1.26412 35.9237L17.1547 47.1689L33.009 35.8353L1.26412 13.5219V35.9237ZM21.2869 3.87928L17.1232 0.830566L1.26412 12.0534L5.54549 15.0467L21.2869 3.87928ZM11.3569 19.1118L27.0982 7.94437L22.9342 4.89566L7.07549 16.1185L11.3569 19.1118ZM17.277 23.3755L33.0184 12.2081L28.8544 9.15937L12.9956 20.3822L17.277 23.3755Z" fill="#4AA8FF"/>
<path d="M43.1794 11.1874C44.0989 9.15557 45.381 7.57218 47.0257 6.43727C48.6705 5.30281 50.535 4.73535 52.6192 4.73535C55.1733 4.73535 57.3592 5.55816 59.178 7.20379C60.9963 8.84942 62.2121 11.0936 62.8252 13.9359H57.0634C56.6344 12.839 56.0261 12.0038 55.2397 11.43C54.453 10.8566 53.559 10.5696 52.5581 10.5696C50.9437 10.5696 49.6361 11.2556 48.6352 12.6267C47.634 13.9982 47.1334 15.831 47.1334 18.1246C47.1334 20.4191 47.6336 22.2519 48.6352 23.6225C49.6361 24.994 50.9441 25.6796 52.5581 25.6796C53.559 25.6796 54.453 25.3935 55.2397 24.8192C56.0261 24.2463 56.6344 23.4111 57.0634 22.3132H62.8252C62.2125 25.156 60.9963 27.3943 59.178 29.0271C57.3592 30.6604 55.173 31.4768 52.6192 31.4768C50.535 31.4768 48.6705 30.9102 47.0257 29.7749C45.381 28.6404 44.0989 27.0634 43.1794 25.0439C42.2599 23.0239 41.8001 20.718 41.8001 18.1241C41.8001 15.5326 42.2599 13.2202 43.1794 11.1874Z" fill="white"/>
<path d="M71.2841 26.3542H78.1496V31.291H66.0435V5.03516H71.2845L71.2841 26.3542Z" fill="white"/>
<path d="M94.0563 26.653H86.0265L84.7391 31.291H79.2528L87.0375 5.03516H93.1061L100.891 31.2915H95.3433L94.0563 26.653ZM92.7078 21.7161L90.0412 12.1037L87.4057 21.7161H92.7078Z" fill="white"/>
<path d="M108.492 5.03516V31.2915H103.251V5.03516H108.492Z" fill="white"/>
<path d="M136.658 5.03516V31.2915H131.417V15.545L126.605 31.291H122.376L117.533 15.5075V31.291H112.292V5.03516H118.483L124.521 23.2125L130.498 5.03516H136.658Z" fill="white"/>
<path d="M145.669 26.3542H152.534V31.291H140.428V5.03516H145.669L145.669 26.3542Z" fill="white"/>
<path d="M173.497 5.03516L166.05 22.614V31.291H160.809V22.614L153.361 5.03516H159.307L163.475 16.0315L167.613 5.03516H173.497Z" fill="white"/>
<path d="M43.2577 42.8132C43.0646 42.7098 42.9127 42.5638 42.8025 42.3743C42.6922 42.1849 42.6371 41.9643 42.6371 41.7117H43.2682C43.2821 41.9011 43.3432 42.0567 43.452 42.1789C43.5607 42.3011 43.7133 42.362 43.9098 42.362C44.1135 42.362 44.2721 42.302 44.3861 42.1817C44.4997 42.0618 44.5567 41.9071 44.5567 41.7176C44.5567 41.5703 44.5215 41.4504 44.4506 41.3579C44.3797 41.2655 44.292 41.1941 44.1866 41.1433C44.0812 41.093 43.9357 41.0381 43.7493 40.979C43.515 40.9035 43.3241 40.8266 43.1778 40.7488C43.0312 40.671 42.9063 40.5498 42.8028 40.3855C42.6993 40.2216 42.6476 40.0029 42.6476 39.7288C42.6476 39.4762 42.6993 39.2556 42.8028 39.0661C42.9063 38.8767 43.0511 38.7321 43.2375 38.6309C43.4238 38.5298 43.6391 38.479 43.884 38.479C44.2323 38.479 44.5177 38.5852 44.7401 38.798C44.9625 39.0103 45.0858 39.3023 45.1098 39.672H44.4581C44.448 39.5119 44.3857 39.3755 44.2717 39.262C44.1581 39.1485 44.0077 39.0918 43.8217 39.0918C43.6526 39.0918 43.515 39.1444 43.4077 39.2496C43.3005 39.3549 43.2472 39.5064 43.2472 39.7041C43.2472 39.8386 43.281 39.9494 43.3481 40.0354C43.4152 40.1219 43.5007 40.1905 43.6042 40.2409C43.7077 40.2912 43.8491 40.3457 44.0283 40.4047C44.2665 40.4848 44.4603 40.5649 44.6103 40.6445C44.7603 40.7246 44.8878 40.8472 44.9932 41.0138C45.0982 41.1799 45.1511 41.4023 45.1511 41.6796C45.1511 41.9025 45.102 42.113 45.0037 42.3112C44.9055 42.5093 44.7622 42.6677 44.5743 42.7876C44.3865 42.9079 44.1648 42.9679 43.9095 42.9679C43.6683 42.9679 43.4508 42.9162 43.2577 42.8132Z" fill="white"/>
<path d="M48.3015 38.5361V42.9234H47.7116V38.5361H48.3015Z" fill="white"/>
<path d="M54.7263 38.5361V42.9234H54.1365V39.9186L53.04 42.9234H52.6312L51.5295 39.9186V42.9234H50.9396V38.5361H51.576L52.8382 41.9766L54.0952 38.5361H54.7263Z" fill="white"/>
<path d="M59.7495 40.4737C59.6632 40.6719 59.5252 40.8325 59.3355 40.957C59.1457 41.081 58.9027 41.1432 58.6061 41.1432H57.9543V42.9234H57.3645V38.5361H58.6061C58.8821 38.5361 59.1157 38.5938 59.307 38.7096C59.4986 38.8254 59.6415 38.9823 59.7363 39.1796C59.8312 39.3777 59.8785 39.5987 59.8785 39.8427C59.8788 40.066 59.8353 40.2765 59.7495 40.4737ZM59.1078 40.3698C59.2181 40.2458 59.2732 40.0701 59.2732 39.8431C59.2732 39.3631 59.0508 39.1233 58.6057 39.1233H57.954V40.5566H58.6057C58.8303 40.5561 58.9976 40.4939 59.1078 40.3698Z" fill="white"/>
<path d="M62.8946 42.3422H64.1103V42.9234H62.3051V38.5361H62.895V42.3422H62.8946Z" fill="white"/>
<path d="M67.0537 38.5361V42.9234H66.4638V38.5361H67.0537Z" fill="white"/>
<path d="M71.8076 38.5361V39.1228H70.2817V40.4169H71.4712V41.0041H70.2817V42.9229H69.6918V38.5356L71.8076 38.5361Z" fill="white"/>
<path d="M76.8821 38.5361L75.6926 41.3322V42.9234H75.1027V41.3322L73.9076 38.5361H74.5646L75.3974 40.6884L76.2303 38.5361H76.8821Z" fill="white"/>
<path d="M79.7999 38.5361V42.9234H79.2101V38.5361H79.7999Z" fill="white"/>
<path d="M85.3916 42.9235H84.8021L83.0279 39.6473V42.9235H82.4381V38.5298H83.0279L84.8021 41.8V38.5298H85.3916V42.9235Z" fill="white"/>
<path d="M90.6322 39.7989C90.5388 39.5797 90.4094 39.4149 90.2441 39.3033C90.0787 39.1916 89.8874 39.1362 89.6699 39.1362C89.4318 39.1362 89.2199 39.2017 89.0339 39.3316C88.8476 39.462 88.7017 39.6474 88.5967 39.8876C88.4917 40.127 88.4388 40.4052 88.4388 40.7205C88.4388 41.0358 88.4917 41.315 88.5967 41.5571C88.7017 41.7987 88.8476 41.9854 89.0339 42.1158C89.2199 42.2462 89.4322 42.3117 89.6699 42.3117C89.9906 42.3117 90.2512 42.2023 90.4511 41.9831C90.6509 41.7644 90.7736 41.4678 90.8182 41.0935H89.4678V40.5183H91.4493V41.0802C91.4111 41.4211 91.3121 41.7351 91.1516 42.0211C90.9911 42.3076 90.7829 42.5355 90.5257 42.7062C90.2684 42.8764 89.9834 42.962 89.6696 42.962C89.3317 42.962 89.0231 42.8663 88.7437 42.6746C88.4643 42.4833 88.2427 42.217 88.0792 41.876C87.9149 41.5351 87.8336 41.1502 87.8336 40.721C87.8336 40.2917 87.9153 39.9069 88.0792 39.5659C88.2431 39.225 88.4651 38.9591 88.7463 38.7674C89.0272 38.5761 89.3351 38.48 89.6696 38.48C90.0524 38.48 90.3929 38.5948 90.6914 38.8241C90.9899 39.0538 91.2063 39.3788 91.3406 39.7998H90.6322V39.7989Z" fill="white"/>
<path d="M97.6878 38.5361V42.9234H97.0979V38.5361H97.6878Z" fill="white"/>
<path d="M103.28 42.9235H102.69L100.916 39.6473V42.9235H100.326V38.5298H100.916L102.69 41.8V38.5298H103.28V42.9235Z" fill="white"/>
<path d="M106.451 42.8132C106.258 42.7098 106.106 42.5638 105.996 42.3743C105.885 42.1849 105.83 41.9643 105.83 41.7117H106.462C106.475 41.9011 106.536 42.0567 106.645 42.1789C106.754 42.3011 106.906 42.362 107.103 42.362C107.307 42.362 107.465 42.302 107.579 42.1817C107.693 42.0618 107.75 41.9071 107.75 41.7176C107.75 41.5703 107.714 41.4504 107.644 41.3579C107.573 41.2655 107.485 41.1941 107.38 41.1433C107.275 41.0925 107.129 41.0381 106.943 40.979C106.708 40.9035 106.518 40.8266 106.371 40.7488C106.225 40.671 106.1 40.5498 105.996 40.3855C105.893 40.2216 105.841 40.0029 105.841 39.7288C105.841 39.4762 105.893 39.2556 105.996 39.0661C106.1 38.8767 106.245 38.7321 106.431 38.6309C106.617 38.5298 106.833 38.479 107.078 38.479C107.426 38.479 107.711 38.5852 107.934 38.798C108.156 39.0103 108.279 39.3023 108.303 39.672H107.652C107.641 39.5119 107.58 39.3755 107.466 39.262C107.352 39.1485 107.202 39.0918 107.016 39.0918C106.847 39.0918 106.709 39.1444 106.602 39.2496C106.494 39.3549 106.441 39.5064 106.441 39.7041C106.441 39.8386 106.475 39.9494 106.542 40.0354C106.609 40.1219 106.695 40.1905 106.798 40.2409C106.902 40.2912 107.043 40.3457 107.223 40.4047C107.461 40.4848 107.655 40.5649 107.805 40.6445C107.955 40.7246 108.082 40.8472 108.187 41.0138C108.292 41.1799 108.345 41.4023 108.345 41.6796C108.345 41.9025 108.296 42.113 108.198 42.3112C108.099 42.5093 107.956 42.6677 107.768 42.7876C107.58 42.9079 107.358 42.9679 107.103 42.9679C106.861 42.9679 106.644 42.9162 106.451 42.8132Z" fill="white"/>
<path d="M111.49 38.5361V41.3322C111.49 41.6649 111.561 41.9152 111.704 42.0837C111.847 42.2521 112.046 42.3363 112.302 42.3363C112.56 42.3363 112.761 42.2521 112.904 42.0837C113.047 41.9157 113.119 41.6649 113.119 41.3322V38.5361H113.709V41.3199C113.709 41.6777 113.644 41.9807 113.517 42.2287C113.389 42.4772 113.218 42.6621 113.005 42.7843C112.791 42.9065 112.555 42.9673 112.296 42.9673C112.038 42.9673 111.802 42.906 111.59 42.7843C111.378 42.6626 111.21 42.4772 111.085 42.2287C110.961 41.9807 110.899 41.6777 110.899 41.3199V38.5361H111.49Z" fill="white"/>
<path d="M118.204 42.9234L117.376 41.1684H116.926V42.9234H116.337V38.5361H117.579C117.854 38.5361 118.088 38.5952 118.279 38.7128C118.471 38.8308 118.614 38.9887 118.709 39.1864C118.804 39.3841 118.851 39.6052 118.851 39.8491C118.851 40.1351 118.783 40.395 118.647 40.6284C118.51 40.8622 118.301 41.021 118.018 41.1052L118.908 42.9234H118.204ZM116.926 40.5941H117.578C117.799 40.5941 117.965 40.5268 118.077 40.3923C118.189 40.2573 118.245 40.0765 118.245 39.8491C118.245 39.6216 118.19 39.4441 118.08 39.3155C117.969 39.1873 117.802 39.1228 117.578 39.1228H116.926V40.5941Z" fill="white"/>
<path d="M123.636 42.027H122.131L121.872 42.9235H121.256L122.545 38.5298H123.227L124.515 42.9235H123.895L123.636 42.027ZM123.47 41.4398L122.886 39.4011L122.296 41.4398H123.47Z" fill="white"/>
<path d="M129.889 42.9235H129.3L127.526 39.6473V42.9235H126.936V38.5298H127.526L129.3 41.8V38.5298H129.889V42.9235Z" fill="white"/>
<path d="M132.577 39.565C132.741 39.224 132.963 38.9581 133.244 38.7664C133.525 38.5751 133.833 38.479 134.167 38.479C134.55 38.479 134.891 38.5939 135.189 38.8231C135.488 39.0529 135.704 39.3778 135.838 39.7988H135.13C135.036 39.5672 134.907 39.3947 134.742 39.2808C134.576 39.1673 134.385 39.1105 134.167 39.1105C133.929 39.1105 133.717 39.176 133.531 39.3064C133.345 39.4368 133.199 39.624 133.094 39.8684C132.989 40.1127 132.936 40.3965 132.936 40.7205C132.936 41.0445 132.989 41.3286 133.094 41.5726C133.199 41.8165 133.345 42.005 133.531 42.1373C133.717 42.27 133.93 42.3363 134.167 42.3363C134.385 42.3363 134.576 42.2796 134.742 42.1661C134.907 42.0526 135.036 41.8801 135.13 41.6485H135.838C135.704 42.0691 135.487 42.3931 135.189 42.6205C134.891 42.8475 134.551 42.9615 134.167 42.9615C133.83 42.9615 133.521 42.8658 133.242 42.6741C132.962 42.4828 132.741 42.2164 132.577 41.8755C132.413 41.5346 132.331 41.1497 132.331 40.7205C132.331 40.2912 132.413 39.9059 132.577 39.565Z" fill="white"/>
<path d="M138.979 39.1169V40.4047H140.221V40.9918H138.979V42.3363H140.376V42.9235H138.389V38.5298H140.376V39.1165L138.979 39.1169Z" fill="white"/>
<path d="M146.218 39.565C146.382 39.224 146.604 38.9581 146.886 38.7664C147.166 38.5751 147.474 38.479 147.809 38.479C148.192 38.479 148.532 38.5939 148.831 38.8231C149.129 39.0529 149.346 39.3778 149.48 39.7988H148.771C148.678 39.5672 148.548 39.3947 148.383 39.2808C148.217 39.1673 148.026 39.1105 147.809 39.1105C147.571 39.1105 147.359 39.176 147.173 39.3064C146.986 39.4368 146.841 39.624 146.736 39.8684C146.631 40.1127 146.578 40.3965 146.578 40.7205C146.578 41.0445 146.631 41.3286 146.736 41.5726C146.841 41.8165 146.986 42.005 147.173 42.1373C147.359 42.27 147.571 42.3363 147.809 42.3363C148.026 42.3363 148.217 42.2796 148.383 42.1661C148.548 42.0526 148.678 41.8801 148.771 41.6485H149.48C149.346 42.0691 149.129 42.3931 148.831 42.6205C148.532 42.8475 148.192 42.9615 147.809 42.9615C147.471 42.9615 147.162 42.8658 146.883 42.6741C146.603 42.4828 146.382 42.2164 146.218 41.8755C146.054 41.5346 145.973 41.1497 145.973 40.7205C145.973 40.2912 146.054 39.9059 146.218 39.565Z" fill="white"/>
<path d="M152.62 42.3422H153.835V42.9234H152.03V38.5361H152.62V42.3422Z" fill="white"/>
<path d="M158.357 42.027H156.852L156.593 42.9235H155.977L157.266 38.5298H157.948L159.236 42.9235H158.616L158.357 42.027ZM158.191 41.4398L157.606 39.4011L157.017 41.4398H158.191Z" fill="white"/>
<path d="M162.247 38.5361V42.9234H161.657V38.5361H162.247Z" fill="white"/>
<path d="M168.671 38.5361V42.9234H168.082V39.9186L166.985 42.9234H166.577L165.475 39.9186V42.9234H164.885V38.5361H165.522L166.784 41.9766L168.041 38.5361H168.671Z" fill="white"/>
<path d="M171.842 42.8132C171.649 42.7098 171.498 42.5638 171.387 42.3743C171.277 42.1849 171.222 41.9643 171.222 41.7117H171.853C171.867 41.9011 171.928 42.0567 172.037 42.1789C172.145 42.3011 172.298 42.362 172.495 42.362C172.698 42.362 172.857 42.302 172.971 42.1817C173.085 42.0618 173.141 41.9071 173.141 41.7176C173.141 41.5703 173.106 41.4504 173.035 41.3579C172.965 41.2655 172.877 41.1941 172.772 41.1433C172.667 41.0925 172.521 41.0381 172.334 40.979C172.1 40.9035 171.91 40.8266 171.763 40.7488C171.616 40.671 171.491 40.5498 171.388 40.3855C171.285 40.2216 171.233 40.0029 171.233 39.7288C171.233 39.4762 171.285 39.2556 171.388 39.0661C171.491 38.8767 171.636 38.7321 171.823 38.6309C172.009 38.5298 172.224 38.479 172.469 38.479C172.818 38.479 173.103 38.5852 173.325 38.798C173.548 39.0103 173.671 39.3023 173.695 39.672H173.044C173.033 39.5119 172.971 39.3755 172.857 39.262C172.743 39.1485 172.594 39.0918 172.407 39.0918C172.238 39.0918 172.1 39.1444 171.993 39.2496C171.886 39.3549 171.833 39.5064 171.833 39.7041C171.833 39.8386 171.866 39.9494 171.934 40.0354C172.001 40.1219 172.086 40.1905 172.19 40.2409C172.293 40.2912 172.435 40.3457 172.614 40.4047C172.852 40.4848 173.046 40.5649 173.196 40.6445C173.346 40.7246 173.474 40.8472 173.579 41.0138C173.684 41.1799 173.737 41.4023 173.737 41.6796C173.737 41.9025 173.687 42.113 173.589 42.3112C173.491 42.5093 173.348 42.6677 173.159 42.7876C172.972 42.9079 172.75 42.9679 172.495 42.9679C172.253 42.9679 172.036 42.9162 171.842 42.8132Z" fill="white"/>
</svg>
