<svg width="32" height="32" viewBox="0 0 32 32" fill="none" xmlns="http://www.w3.org/2000/svg">
<g clip-path="url(#clip0_17428_2360)">
<path d="M16 19.2812C17.8122 19.2812 19.2812 17.8122 19.2812 16C19.2812 14.1878 17.8122 12.7188 16 12.7188C14.1878 12.7188 12.7188 14.1878 12.7188 16C12.7188 17.8122 14.1878 19.2812 16 19.2812Z" fill="#2563EB"/>
<path d="M16 0.375C7.37056 0.375 0.375 7.37056 0.375 16C0.375 24.6294 7.37056 31.625 16 31.625C24.6294 31.625 31.625 24.6294 31.625 16C31.625 7.37056 24.6294 0.375 16 0.375ZM25.6536 19.9713C25.5786 21.4568 25.1612 22.9216 24.0786 23.9927C22.9856 25.0739 21.5138 25.4768 20.0139 25.5511H11.9861C10.4861 25.4768 9.0145 25.0742 7.92144 23.9927C6.83881 22.9216 6.42144 21.4568 6.34644 19.9713V12.0288C6.42144 10.5433 6.83887 9.07837 7.92144 8.00725C9.0145 6.926 10.4863 6.52312 11.9861 6.44894H20.0139C21.5139 6.52312 22.9855 6.92581 24.0786 8.00725C25.1612 9.07837 25.5786 10.5433 25.6536 12.0288L25.6536 19.9713Z" fill="#2563EB"/>
<path d="M19.9125 8.25848C17.9572 8.20486 14.0434 8.20486 12.088 8.25848C11.0705 8.28642 9.91691 8.53973 9.19191 9.31411C8.43854 10.119 8.15385 11.0915 8.12497 12.1795C8.07422 14.089 8.12497 19.8202 8.12497 19.8202C8.15804 20.908 8.43854 21.8807 9.19191 22.6856C9.91691 23.4602 11.0705 23.7133 12.088 23.7412C14.0434 23.7949 17.9572 23.7949 19.9125 23.7412C20.9301 23.7133 22.0837 23.46 22.8087 22.6856C23.562 21.8807 23.8467 20.9082 23.8756 19.8202V12.1795C23.8467 11.0915 23.562 10.119 22.8087 9.31411C22.0834 8.53948 20.9298 8.28642 19.9125 8.25848ZM16 21.0858C14.9941 21.0858 14.0108 20.7875 13.1744 20.2287C12.3381 19.6698 11.6862 18.8755 11.3012 17.9462C10.9163 17.0168 10.8156 15.9942 11.0118 15.0076C11.2081 14.0211 11.6925 13.1148 12.4037 12.4036C13.115 11.6923 14.0212 11.2079 15.0078 11.0116C15.9944 10.8154 17.017 10.9161 17.9463 11.3011C18.8757 11.686 19.67 12.3379 20.2288 13.1743C20.7877 14.0106 21.086 14.994 21.086 15.9999C21.086 17.3487 20.5501 18.6424 19.5963 19.5962C18.6425 20.55 17.3489 21.0858 16 21.0858ZM21.1076 11.9637C20.9064 11.9637 20.7098 11.904 20.5425 11.7922C20.3753 11.6804 20.245 11.5215 20.168 11.3356C20.0911 11.1498 20.071 10.9452 20.1102 10.7479C20.1495 10.5506 20.2464 10.3694 20.3887 10.2272C20.5309 10.085 20.7122 9.98811 20.9095 9.94888C21.1068 9.90965 21.3113 9.92981 21.4972 10.0068C21.683 10.0838 21.8419 10.2142 21.9536 10.3815C22.0654 10.5487 22.125 10.7454 22.125 10.9465C22.125 11.0801 22.0987 11.2124 22.0476 11.3359C21.9964 11.4593 21.9215 11.5714 21.827 11.6659C21.7325 11.7603 21.6204 11.8353 21.4969 11.8864C21.3735 11.9375 21.2412 11.9638 21.1076 11.9637Z" fill="#2563EB"/>
</g>
<defs>
<clipPath id="clip0_17428_2360">
<rect width="32" height="32" fill="white"/>
</clipPath>
</defs>
</svg>
