<svg width="32" height="32" viewBox="0 0 32 32" fill="none" xmlns="http://www.w3.org/2000/svg">
<g clip-path="url(#clip0_17428_2370)">
<path d="M16 0C7.16481 0 0 7.16481 0 16C0 24.8352 7.16481 32 16 32C24.8352 32 32 24.8352 32 16C32 7.16481 24.8352 0 16 0ZM11.3506 24.1875H7.45388V12.4641H11.3506L11.3506 24.1875ZM9.40231 10.8632H9.37694C8.06931 10.8632 7.22363 9.96313 7.22363 8.83813C7.22363 7.68775 8.09519 6.8125 9.42825 6.8125C10.7613 6.8125 11.5816 7.68775 11.6069 8.83813C11.6069 9.96313 10.7612 10.8633 9.40231 10.8633V10.8632ZM25.4014 24.1875H21.5052V17.9158C21.5052 16.3396 20.941 15.2646 19.5311 15.2646C18.4546 15.2646 17.8136 15.9897 17.5318 16.6897C17.4288 16.9402 17.4036 17.2903 17.4036 17.6406V24.1875H13.5071C13.5071 24.1875 13.5582 13.5639 13.5071 12.4641H17.4036V14.124C17.9214 13.3252 18.848 12.189 20.9154 12.189C23.4791 12.189 25.4014 13.8645 25.4014 17.4653V24.1875Z" fill="#2563EB"/>
</g>
<defs>
<clipPath id="clip0_17428_2370">
<rect width="32" height="32" fill="white"/>
</clipPath>
</defs>
</svg>
