<svg width="145" height="40" viewBox="0 0 145 40" fill="none" xmlns="http://www.w3.org/2000/svg">
<path d="M1.04742 29.9364L14.2139 39.3074L27.3503 29.8628L1.04742 11.2683V29.9364ZM17.6377 3.23273L14.1878 0.692139L1.04742 10.0445L4.59484 12.5389L17.6377 3.23273ZM9.40998 15.9265L22.4528 6.62031L19.0027 4.07972L5.86255 13.4321L9.40998 15.9265ZM14.3152 19.4796L27.3581 10.1734L23.9079 7.63281L10.7678 16.9852L14.3152 19.4796Z" fill="#4AA8FF" style="fill:#4AA8FF;fill:color(display-p3 0.2902 0.6588 1.0000);fill-opacity:1;"/>
<path d="M35.7772 9.32302C36.539 7.6298 37.6014 6.31031 38.9642 5.36455C40.327 4.41917 41.8718 3.94629 43.5988 3.94629C45.7151 3.94629 47.5262 4.63197 49.0332 6.00332C50.5398 7.37468 51.5472 9.24484 52.0552 11.6134H47.2811C46.9256 10.6993 46.4216 10.0034 45.7701 9.52514C45.1182 9.0473 44.3774 8.80819 43.5481 8.80819C42.2105 8.80819 41.127 9.37984 40.2978 10.5224C39.4681 11.6653 39.0533 13.1926 39.0533 15.104C39.0533 17.0161 39.4678 18.5434 40.2978 19.6856C41.127 20.8285 42.2108 21.3998 43.5481 21.3998C44.3774 21.3998 45.1182 21.1614 45.7701 20.6828C46.4216 20.2054 46.9256 19.5094 47.2811 18.5945H52.0552C51.5475 20.9635 50.5398 22.8287 49.0332 24.1894C47.5262 25.5505 45.7147 26.2308 43.5988 26.2308C41.8718 26.2308 40.327 25.7587 38.9642 24.8125C37.6014 23.8672 36.539 22.553 35.7772 20.8701C35.0153 19.1868 34.6344 17.2651 34.6344 15.1036C34.6344 12.944 35.0153 11.017 35.7772 9.32302Z" fill="black" style="fill:black;fill-opacity:1;"/>
<path d="M59.0639 21.9619H64.7525V26.0759H54.7217V4.19604H59.0642L59.0639 21.9619Z" fill="black" style="fill:black;fill-opacity:1;"/>
<path d="M77.9324 22.2109H71.2791L70.2124 26.0759H65.6666L72.1167 4.19604H77.145L83.5951 26.0763H78.9987L77.9324 22.2109ZM76.815 18.0968L74.6056 10.0865L72.4219 18.0968H76.815Z" fill="black" style="fill:black;fill-opacity:1;"/>
<path d="M89.8933 4.19604V26.0763H85.5508V4.19604H89.8933Z" fill="black" style="fill:black;fill-opacity:1;"/>
<path d="M113.231 4.19604V26.0763H108.888V12.9543L104.901 26.0759H101.397L97.3846 12.923V26.0759H93.0421V4.19604H98.172L103.175 19.3439L108.127 4.19604H113.231Z" fill="black" style="fill:black;fill-opacity:1;"/>
<path d="M120.697 21.9619H126.385V26.0759H116.355V4.19604H120.697L120.697 21.9619Z" fill="black" style="fill:black;fill-opacity:1;"/>
<path d="M143.755 4.19604L137.584 18.8451V26.0759H133.242V18.8451L127.071 4.19604H131.997L135.451 13.3596L138.879 4.19604H143.755Z" fill="black" style="fill:black;fill-opacity:1;"/>
<path d="M35.8421 35.6777C35.6821 35.5916 35.5563 35.4699 35.4649 35.312C35.3736 35.1541 35.3279 34.9703 35.3279 34.7598H35.8508C35.8623 34.9177 35.913 35.0474 36.0031 35.1492C36.0932 35.251 36.2196 35.3017 36.3824 35.3017C36.5512 35.3017 36.6826 35.2518 36.7771 35.1515C36.8712 35.0516 36.9184 34.9227 36.9184 34.7648C36.9184 34.642 36.8892 34.5421 36.8305 34.465C36.7718 34.388 36.6991 34.3285 36.6118 34.2862C36.5244 34.2442 36.4039 34.1985 36.2495 34.1493C36.0553 34.0863 35.8971 34.0223 35.7759 33.9574C35.6544 33.8926 35.551 33.7916 35.4652 33.6546C35.3795 33.5181 35.3366 33.3358 35.3366 33.1074C35.3366 32.8969 35.3795 32.7131 35.4652 32.5552C35.551 32.3973 35.6709 32.2768 35.8253 32.1925C35.9798 32.1082 36.1581 32.0659 36.361 32.0659C36.6497 32.0659 36.8861 32.1544 37.0704 32.3317C37.2546 32.5087 37.3568 32.752 37.3767 33.0601H36.8367C36.8283 32.9266 36.7767 32.813 36.6823 32.7184C36.5881 32.6238 36.4635 32.5766 36.3094 32.5766C36.1693 32.5766 36.0553 32.6204 35.9664 32.7081C35.8775 32.7958 35.8334 32.9221 35.8334 33.0868C35.8334 33.1989 35.8614 33.2912 35.917 33.3629C35.9726 33.435 36.0435 33.4922 36.1292 33.5341C36.215 33.5761 36.3321 33.6215 36.4806 33.6707C36.6779 33.7374 36.8386 33.8041 36.9629 33.8705C37.0871 33.9372 37.1928 34.0394 37.2801 34.1782C37.3671 34.3167 37.4109 34.502 37.4109 34.7331C37.4109 34.9188 37.3702 35.0943 37.2888 35.2594C37.2074 35.4245 37.0887 35.5565 36.933 35.6564C36.7774 35.7567 36.5937 35.8066 36.3821 35.8066C36.1823 35.8066 36.0021 35.7635 35.8421 35.6777Z" fill="black" style="fill:black;fill-opacity:1;"/>
<path d="M40.0212 32.1135V35.7696H39.5325V32.1135H40.0212Z" fill="black" style="fill:black;fill-opacity:1;"/>
<path d="M45.3447 32.1135V35.7696H44.8559V33.2656L43.9474 35.7696H43.6087L42.6958 33.2656V35.7696H42.2071V32.1135H42.7344L43.7802 34.9806L44.8217 32.1135H45.3447Z" fill="black" style="fill:black;fill-opacity:1;"/>
<path d="M49.5067 33.7282C49.4352 33.8933 49.3209 34.0272 49.1637 34.1309C49.0065 34.2342 48.8051 34.2861 48.5593 34.2861H48.0193V35.7696H47.5306V32.1135H48.5593C48.788 32.1135 48.9816 32.1616 49.1401 32.2581C49.2988 32.3545 49.4172 32.4853 49.4958 32.6497C49.5744 32.8148 49.6136 32.999 49.6136 33.2023C49.6139 33.3884 49.5779 33.5638 49.5067 33.7282ZM48.9751 33.6416C49.0664 33.5383 49.1121 33.3918 49.1121 33.2027C49.1121 32.8026 48.9278 32.6028 48.559 32.6028H48.019V33.7972H48.559C48.7451 33.7968 48.8837 33.745 48.9751 33.6416Z" fill="black" style="fill:black;fill-opacity:1;"/>
<path d="M52.1127 35.2853H53.12V35.7696H51.6242V32.1135H52.113V35.2853H52.1127Z" fill="black" style="fill:black;fill-opacity:1;"/>
<path d="M55.5588 32.1135V35.7696H55.07V32.1135H55.5588Z" fill="black" style="fill:black;fill-opacity:1;"/>
<path d="M59.4977 32.1135V32.6024H58.2334V33.6809H59.219V34.1702H58.2334V35.7692H57.7447V32.1132L59.4977 32.1135Z" fill="black" style="fill:black;fill-opacity:1;"/>
<path d="M63.7023 32.1135L62.7167 34.4436V35.7696H62.228V34.4436L61.2377 32.1135H61.7821L62.4722 33.907L63.1623 32.1135H63.7023Z" fill="black" style="fill:black;fill-opacity:1;"/>
<path d="M66.12 32.1135V35.7696H65.6312V32.1135H66.12Z" fill="black" style="fill:black;fill-opacity:1;"/>
<path d="M70.753 35.7697H70.2646L68.7946 33.0395V35.7697H68.3058V32.1083H68.7946L70.2646 34.8334V32.1083H70.753V35.7697Z" fill="black" style="fill:black;fill-opacity:1;"/>
<path d="M75.0953 33.1657C75.0179 32.983 74.9107 32.8458 74.7737 32.7527C74.6366 32.6597 74.4782 32.6135 74.298 32.6135C74.1007 32.6135 73.9251 32.668 73.771 32.7764C73.6166 32.885 73.4957 33.0395 73.4087 33.2397C73.3217 33.4392 73.2779 33.671 73.2779 33.9338C73.2779 34.1965 73.3217 34.4291 73.4087 34.6309C73.4957 34.8322 73.6166 34.9878 73.771 35.0965C73.9251 35.2052 74.101 35.2597 74.298 35.2597C74.5636 35.2597 74.7796 35.1686 74.9452 34.9859C75.1108 34.8036 75.2124 34.5565 75.2494 34.2446H74.1305V33.7652H75.7723V34.2335C75.7406 34.5176 75.6586 34.7792 75.5256 35.0176C75.3926 35.2563 75.2202 35.4462 75.007 35.5885C74.7939 35.7303 74.5577 35.8016 74.2977 35.8016C74.0177 35.8016 73.762 35.7219 73.5305 35.5622C73.299 35.4027 73.1154 35.1808 72.9799 34.8967C72.8438 34.6126 72.7764 34.2919 72.7764 33.9341C72.7764 33.5764 72.8441 33.2557 72.9799 32.9716C73.1157 32.6875 73.2996 32.4659 73.5327 32.3061C73.7654 32.1467 74.0205 32.0667 74.2977 32.0667C74.6149 32.0667 74.897 32.1624 75.1443 32.3534C75.3917 32.5449 75.571 32.8156 75.6822 33.1665H75.0953V33.1657Z" fill="black" style="fill:black;fill-opacity:1;"/>
<path d="M80.9413 32.1135V35.7696H80.4526V32.1135H80.9413Z" fill="black" style="fill:black;fill-opacity:1;"/>
<path d="M85.5747 35.7697H85.0862L83.6163 33.0395V35.7697H83.1275V32.1083H83.6163L85.0862 34.8334V32.1083H85.5747V35.7697Z" fill="black" style="fill:black;fill-opacity:1;"/>
<path d="M88.2021 35.6777C88.0421 35.5916 87.9166 35.4699 87.8249 35.312C87.7335 35.1541 87.6879 34.9703 87.6879 34.7598H88.2111C88.2223 34.9177 88.2729 35.0474 88.363 35.1492C88.4532 35.251 88.5793 35.3017 88.7424 35.3017C88.9112 35.3017 89.0426 35.2518 89.137 35.1515C89.2315 35.0516 89.2784 34.9227 89.2784 34.7648C89.2784 34.642 89.2489 34.5421 89.1905 34.465C89.1321 34.388 89.059 34.3285 88.972 34.2862C88.885 34.2438 88.7642 34.1985 88.6098 34.1493C88.4156 34.0863 88.2577 34.0223 88.1362 33.9574C88.0147 33.8926 87.9113 33.7916 87.8255 33.6546C87.7401 33.5181 87.6972 33.3358 87.6972 33.1074C87.6972 32.8969 87.7401 32.7131 87.8255 32.5552C87.9113 32.3973 88.0312 32.2768 88.1856 32.1925C88.3398 32.1082 88.5184 32.0659 88.7216 32.0659C89.0103 32.0659 89.2464 32.1544 89.4307 32.3317C89.6152 32.5087 89.7171 32.752 89.737 33.0601H89.1973C89.1886 32.9266 89.1374 32.813 89.0429 32.7184C88.9484 32.6238 88.8245 32.5766 88.67 32.5766C88.5302 32.5766 88.4159 32.6204 88.327 32.7081C88.2381 32.7958 88.194 32.9221 88.194 33.0868C88.194 33.1989 88.222 33.2912 88.2779 33.3629C88.3335 33.435 88.4041 33.4922 88.4901 33.5341C88.5756 33.5761 88.6927 33.6215 88.8416 33.6707C89.0389 33.7374 89.1995 33.8041 89.3238 33.8705C89.4481 33.9372 89.5537 34.0394 89.641 34.1782C89.728 34.3167 89.7715 34.502 89.7715 34.7331C89.7715 34.9188 89.7308 35.0943 89.6494 35.2594C89.5677 35.4245 89.4493 35.5565 89.2933 35.6564C89.1377 35.7567 88.954 35.8066 88.7427 35.8066C88.5423 35.8066 88.3624 35.7635 88.2021 35.6777Z" fill="black" style="fill:black;fill-opacity:1;"/>
<path d="M92.3772 32.1135V34.4436C92.3772 34.7209 92.4362 34.9295 92.5549 35.0698C92.6736 35.2101 92.8383 35.2803 93.0499 35.2803C93.2643 35.2803 93.4308 35.2101 93.5492 35.0698C93.6679 34.9298 93.7269 34.7209 93.7269 34.4436V32.1135H94.2157V34.4333C94.2157 34.7315 94.1625 34.984 94.0569 35.1907C93.9509 35.3978 93.8096 35.5518 93.6325 35.6536C93.4553 35.7555 93.2599 35.8062 93.0452 35.8062C92.8311 35.8062 92.636 35.7551 92.4601 35.6536C92.2843 35.5522 92.1451 35.3978 92.0422 35.1907C91.9394 34.984 91.8878 34.7315 91.8878 34.4333V32.1135H92.3772Z" fill="black" style="fill:black;fill-opacity:1;"/>
<path d="M97.9405 35.7696L97.2548 34.3071H96.8819V35.7696H96.3931V32.1135H97.4222C97.6506 32.1135 97.8442 32.1627 98.003 32.2607C98.1614 32.3591 98.2801 32.4907 98.3587 32.6554C98.4373 32.8202 98.4768 33.0044 98.4768 33.2076C98.4768 33.446 98.4199 33.6626 98.3075 33.8571C98.1944 34.052 98.0207 34.1843 97.7864 34.2545L98.5237 35.7696H97.9405ZM96.8819 33.8285H97.4219C97.6046 33.8285 97.7426 33.7724 97.8355 33.6603C97.9284 33.5478 97.9747 33.3972 97.9747 33.2076C97.9747 33.0181 97.929 32.8701 97.8377 32.763C97.746 32.6562 97.6077 32.6024 97.4219 32.6024H96.8819V33.8285Z" fill="black" style="fill:black;fill-opacity:1;"/>
<path d="M102.441 35.0226H101.194L100.98 35.7697H100.469L101.537 32.1083H102.102L103.17 35.7697H102.656L102.441 35.0226ZM102.304 34.5333L101.819 32.8344L101.331 34.5333H102.304Z" fill="black" style="fill:black;fill-opacity:1;"/>
<path d="M107.623 35.7697H107.134L105.664 33.0395V35.7697H105.175V32.1083H105.664L107.134 34.8334V32.1083H107.623V35.7697Z" fill="black" style="fill:black;fill-opacity:1;"/>
<path d="M109.85 32.9709C109.985 32.6868 110.169 32.4652 110.402 32.3054C110.635 32.146 110.89 32.0659 111.167 32.0659C111.485 32.0659 111.767 32.1616 112.014 32.3527C112.261 32.5441 112.441 32.8149 112.552 33.1657H111.965C111.887 32.9728 111.78 32.829 111.643 32.7341C111.506 32.6395 111.347 32.5922 111.167 32.5922C110.97 32.5922 110.794 32.6467 110.64 32.7554C110.486 32.8641 110.365 33.0201 110.278 33.2237C110.191 33.4274 110.147 33.6638 110.147 33.9338C110.147 34.2038 110.191 34.4406 110.278 34.6439C110.365 34.8471 110.486 35.0043 110.64 35.1145C110.794 35.2251 110.97 35.2804 111.167 35.2804C111.347 35.2804 111.506 35.2331 111.643 35.1385C111.78 35.0439 111.887 34.9002 111.965 34.7072H112.552C112.441 35.0577 112.261 35.3277 112.014 35.5172C111.767 35.7063 111.485 35.8013 111.167 35.8013C110.887 35.8013 110.632 35.7216 110.4 35.5618C110.169 35.4024 109.985 35.1804 109.85 34.8963C109.713 34.6122 109.646 34.2915 109.646 33.9338C109.646 33.5761 109.714 33.255 109.85 32.9709Z" fill="black" style="fill:black;fill-opacity:1;"/>
<path d="M115.154 32.5976V33.6707H116.183V34.16H115.154V35.2804H116.311V35.7697H114.665V32.1083H116.311V32.5972L115.154 32.5976Z" fill="black" style="fill:black;fill-opacity:1;"/>
<path d="M121.152 32.9709C121.288 32.6868 121.472 32.4652 121.705 32.3054C121.938 32.146 122.193 32.0659 122.47 32.0659C122.787 32.0659 123.069 32.1616 123.317 32.3527C123.564 32.5441 123.743 32.8149 123.855 33.1657H123.267C123.19 32.9728 123.083 32.829 122.946 32.7341C122.809 32.6395 122.65 32.5922 122.47 32.5922C122.273 32.5922 122.097 32.6467 121.943 32.7554C121.789 32.8641 121.668 33.0201 121.581 33.2237C121.494 33.4274 121.45 33.6638 121.45 33.9338C121.45 34.2038 121.494 34.4406 121.581 34.6439C121.668 34.8471 121.789 35.0043 121.943 35.1145C122.097 35.2251 122.273 35.2804 122.47 35.2804C122.65 35.2804 122.809 35.2331 122.946 35.1385C123.083 35.0439 123.19 34.9002 123.267 34.7072H123.855C123.743 35.0577 123.564 35.3277 123.317 35.5172C123.069 35.7063 122.788 35.8013 122.47 35.8013C122.19 35.8013 121.934 35.7216 121.703 35.5618C121.471 35.4024 121.288 35.1804 121.152 34.8963C121.016 34.6122 120.949 34.2915 120.949 33.9338C120.949 33.5761 121.017 33.255 121.152 32.9709Z" fill="black" style="fill:black;fill-opacity:1;"/>
<path d="M126.457 35.2853H127.464V35.7696H125.968V32.1135H126.457V35.2853Z" fill="black" style="fill:black;fill-opacity:1;"/>
<path d="M131.21 35.0226H129.963L129.748 35.7697H129.238L130.306 32.1083H130.871L131.939 35.7697H131.424L131.21 35.0226ZM131.073 34.5333L130.588 32.8344L130.1 34.5333H131.073Z" fill="black" style="fill:black;fill-opacity:1;"/>
<path d="M134.433 32.1135V35.7696H133.944V32.1135H134.433Z" fill="black" style="fill:black;fill-opacity:1;"/>
<path d="M139.756 32.1135V35.7696H139.268V33.2656L138.359 35.7696H138.021L137.108 33.2656V35.7696H136.619V32.1135H137.146L138.192 34.9806L139.234 32.1135H139.756Z" fill="black" style="fill:black;fill-opacity:1;"/>
<path d="M142.384 35.6777C142.224 35.5916 142.098 35.4699 142.007 35.312C141.915 35.1541 141.87 34.9703 141.87 34.7598H142.393C142.404 34.9177 142.455 35.0474 142.545 35.1492C142.635 35.251 142.761 35.3017 142.924 35.3017C143.093 35.3017 143.224 35.2518 143.319 35.1515C143.413 35.0516 143.46 34.9227 143.46 34.7648C143.46 34.642 143.431 34.5421 143.372 34.465C143.314 34.388 143.241 34.3285 143.154 34.2862C143.067 34.2438 142.946 34.1985 142.791 34.1493C142.597 34.0863 142.439 34.0223 142.318 33.9574C142.196 33.8926 142.093 33.7916 142.007 33.6546C141.922 33.5181 141.879 33.3358 141.879 33.1074C141.879 32.8969 141.922 32.7131 142.007 32.5552C142.093 32.3973 142.213 32.2768 142.367 32.1925C142.521 32.1082 142.7 32.0659 142.903 32.0659C143.192 32.0659 143.428 32.1544 143.612 32.3317C143.797 32.5087 143.899 32.752 143.919 33.0601H143.379C143.37 32.9266 143.319 32.813 143.225 32.7184C143.13 32.6238 143.006 32.5766 142.852 32.5766C142.712 32.5766 142.598 32.6204 142.509 32.7081C142.42 32.7958 142.376 32.9221 142.376 33.0868C142.376 33.1989 142.404 33.2912 142.46 33.3629C142.515 33.435 142.586 33.4922 142.672 33.5341C142.757 33.5761 142.874 33.6215 143.023 33.6707C143.221 33.7374 143.381 33.8041 143.505 33.8705C143.63 33.9372 143.735 34.0394 143.823 34.1782C143.91 34.3167 143.953 34.502 143.953 34.7331C143.953 34.9188 143.913 35.0943 143.831 35.2594C143.749 35.4245 143.631 35.5565 143.475 35.6564C143.319 35.7567 143.136 35.8066 142.924 35.8066C142.724 35.8066 142.544 35.7635 142.384 35.6777Z" fill="black" style="fill:black;fill-opacity:1;"/>
</svg>
