<svg width="32" height="32" viewBox="0 0 32 32" fill="none" xmlns="http://www.w3.org/2000/svg">
<g clip-path="url(#clip0_17428_2365)">
<path d="M16 0C24.8363 2.33073e-07 32 7.16375 32 16C32 24.8363 24.8363 32 16 32C7.16375 32 2.33058e-07 24.8363 0 16C0 7.16375 7.16375 0 16 0ZM13.9834 17.0439L6.80078 25.3936H8.42383L14.7041 18.0928L19.7207 25.3936H25.1992L17.75 14.5518L24.5996 6.59082H22.9766L17.0293 13.5039L12.2793 6.59082H6.80078L13.9834 17.0439ZM22.9775 24.2275H20.4844L9.00879 7.8125H11.502L22.9775 24.2275Z" fill="#2563EB"/>
</g>
<defs>
<clipPath id="clip0_17428_2365">
<rect width="32" height="32" fill="white"/>
</clipPath>
</defs>
</svg>
